/* XPM */
static char *_7826_9dc8bda985d20ac6eb68caf4fd984ecbd3343f856e45841c1df5550dc7de5a67[] = {
/* columns rows colors chars-per-pixel */
"64 64 87 1 ",
"  c #131313",
". c #1C1C1C",
"X c #242424",
"o c #2B2B2B",
"O c #333333",
"+ c #3C3C3C",
"@ c #215914",
"# c #255D19",
"$ c #285E1B",
"% c #2B601E",
"& c #2D6221",
"* c #326626",
"= c #346728",
"- c #36692A",
"; c #396B2E",
": c #3D6E31",
"> c #417136",
", c #45743B",
"< c #4A783F",
"1 c #434343",
"2 c #4D4D4D",
"3 c #545454",
"4 c #5A5A5A",
"5 c #4D7942",
"6 c #517D47",
"7 c #537E49",
"8 c #646464",
"9 c #6C6C6C",
"0 c #737373",
"q c #7D7D7D",
"w c #56814C",
"e c #59834F",
"r c #5B8452",
"t c #648B5B",
"y c #688E5F",
"u c #698F60",
"i c #6C9164",
"p c #72966A",
"a c #75986D",
"s c #7A9C73",
"d c #7F9F78",
"f c #83A27B",
"g c #848484",
"h c #8C8C8C",
"j c #939393",
"k c #9D9D9D",
"l c #8AA884",
"z c #8FAB88",
"x c #91AD8B",
"c c #96B08F",
"v c #97B190",
"b c #9AB494",
"n c #9EB699",
"m c #A4BB9F",
"M c #A3A3A3",
"N c #ABABAB",
"B c #A6BDA1",
"V c #B4B4B4",
"C c #BCBCBC",
"Z c #ABC0A6",
"A c #B1C5AD",
"S c #B4C7B0",
"D c #B6C8B2",
"F c #B9CBB5",
"G c #BDCEB9",
"H c #C2D1BE",
"J c gray77",
"K c gray80",
"L c #C6D4C3",
"P c #CAD7C7",
"I c #CCD9C9",
"U c #D1DCCE",
"Y c #D3D3D3",
"T c #D3DED1",
"R c #DCDCDC",
"E c #D5E0D3",
"W c #D9E2D6",
"Q c #DDE6DB",
"! c #E0E8DE",
"~ c #E4E4E4",
"^ c #E4EBE2",
"/ c #E8EEE7",
"( c #EBECEB",
") c #EDF1EC",
"_ c #F4F5F3",
"` c #F6F8F6",
"' c #FFFFFF",
/* pixels */
"''''''''''''''''''''''''''''''''''''''''''''''''''''''''''''''''",
"''''''''''''''''''''''''''''''''''''''''''''''''''''''''''''''''",
"''''''''''''''''''''''''''''''''''''''''''''''''''''''''''''''''",
"''''''''''''''''''''''''''''''''''''''''''''''''''''''''''''''''",
"''''''''''''''''''''''''''''''''''''''''''''''''''''''''''''''''",
"''''''''''''''''''''''''''''_N9X.4M(''''''''''''''''''''''''''''",
"'''''''''''''''''''''''''~h1 3kR(M8.OqY'''''''''''''''''''''''''",
"''''''''''''''''''''''_k+.0J''''''''KgXOh~''''''''''''''''''''''",
"''''''''''''''''''''J3 8C''''''''''''''K9.1V''''''''''''''''''''",
"'''''''''''''''''`MOOM`'''''''''''''''''''V1Xh_'''''''''''''''''",
"'''''''''''''''_g.3J''''''''''''''''''''''''Y8 0~'''''''''''''''",
"'''''''''''''`h.9R''''''''''''''''''''''''''''(g.q('''''''''''''",
"''''''''''''NX3R''''''''''''''''''''''''''''''''(0.q_'''''''''''",
"'''''''''''82Y''''''''''''''''''''''''''''''''''''~9.`''''''''''",
"'''''''''''+K''')`'''''''''''''''''''''''''''''''''` '''''''''''",
"'''''''''''3V'''^U'''''''''''''''''''''''''''''''''(X'''''''''''",
"'''''''''''9k'QDLHT)'''''''''''''''''''''''''''''''K+'''''''''''",
"'''''''''''hg'''DW_''''''''''''''''''''''''''''''''C3'''''''''''",
"'''''''''''k9'''P'''''''''''''''''''''''''''''''^''k9'''''''''''",
"'''''''''''C2'''_''''''''''''''''''''''''''''''HI''gg'''''''''''",
"'''''''''''RO'''''''''''''''''''''''''''''''''Dt'''9k'''''''''''",
"'''''''''''` '''''''''''''''''''''''''''''''!i;!'''3V'''''''''''",
"''''''''''''._''''''_f)''''''''''''''''''`Ar@t^'/''OR'''''''''''",
"''''''''''''OY''''''ia7'''''''''''''''_Au%:fW''Gb'' `'''''''''''",
"''''''''''''3V''''''5$@;:*wfI''''''''^->xT''')d%)'~X''''''''''''",
"''''''''''''qh'''''`=@@@@@@@@rE''''''yt`'''Uf%@v''C3''''''''''''",
"''''''''''''M9''''U=@@@@@@@@@@5G''''!#/'Qf:@@#z'''j0''''''''''''",
"''''''''''''K+'''_;@@@@@@@@@@@&F''''nu'Q&@#7x/_L''9k''''''''''''",
"''''''''''''_.'''x%@@@@@@@@@@@@#E'''iB'iiH`'_n:/''1J''''''''''''",
"'''''''''''''.('''r@@@@@@@@@@@@@r''',U'D'/Zi&@A'''.(''''''''''''",
"'''''''''''''2C''/@@@@@@@@@@@@@@@Q''#_'Qt@@@6H'''(.'''''''''''''",
"'''''''''''''qh''x@@@@&S%@@@@@@@@f'!='E&:fD)'!L''V3'''''''''''''",
"'''''''''''''V3')%@@@,Q'v@@@@@@@@,'I<'yA'''!s,_''gg'''''''''''''",
"'''''''''''''~X'L@@@x'''^@@@@@@@@#'At`)`Hs:@=T'''2C'''''''''''''",
"''''''''''''''.(`e$i''''_@@@@@@@@%'ns'G-@@<l/''''.('''''''''''''",
"''''''''''''''3N''''''''m@@@@@@@@z'ymW>cI`''''''Ro''''''''''''''",
"''''''''''''''j0'''''''^&@@@@@@%n'^%^!''''''''''k8''''''''''''''",
"''''''''''''''KO'''''''7@@@@@<c/'E>s''''''''''''8M''''''''''''''",
"''''''''''''''' _'''''G@@&aA)''_x$s`''''''''''''X~''''''''''''''",
"'''''''''''''''3N'''''i#x`'''Ud*,G'''''''''''''RX'''''''''''''''",
"'''''''''''''''N3'''''5n'`Ap=*aL'''''''''''''''gq'''''''''''''''",
"'''''''''''''''` _''''y`W,pnT''''''''''''''''''oY'''''''''''''''",
"''''''''''''''''3N''''P'v)''''''''''''''''''''Yo''''''''''''''''",
"''''''''''''''''Jo'''''')'''''''''''''''''''''4j''''''''''''''''",
"'''''''''''''''''1N''''''''''''''''''''''''''YX`''''''''''''''''",
"'''''''''''''''''KX`'''''''''''''''''''''''''3k'''''''''''''''''",
"''''''''''''''''''2h''''''''''''''''''''''''Vo`'''''''''''''''''",
"''''''''''''''''''(XK''''''''''''''''''''''(.K''''''''''''''''''",
"'''''''''''''''''''CX_'''''''''''''''''''''2h'''''''''''''''''''",
"''''''''''''''''''''03''''''''''''''''''''g1''''''''''''''''''''",
"''''''''''''''''''''`29''''''''''''''''''jO(''''''''''''''''''''",
"'''''''''''''''''''''_19''''''''''''''''jo~'''''''''''''''''''''",
"''''''''''''''''''''''`22)''''''''''''`0O~''''''''''''''''''''''",
"''''''''''''''''''''''''hXY''''''''''(14`'''''''''''''''''''''''",
"'''''''''''''''''''''''''V.M''''''''CXj'''''''''''''''''''''''''",
"''''''''''''''''''''''''''~O4_'''''qXJ''''''''''''''''''''''''''",
"'''''''''''''''''''''''''''`qXJ''~+3('''''''''''''''''''''''''''",
"'''''''''''''''''''''''''''''CXhN.k'''''''''''''''''''''''''''''",
"''''''''''''''''''''''''''''''(2OR''''''''''''''''''''''''''''''",
"''''''''''''''''''''''''''''''''`'''''''''''''''''''''''''''''''",
"''''''''''''''''''''''''''''''''''''''''''''''''''''''''''''''''",
"''''''''''''''''''''''''''''''''''''''''''''''''''''''''''''''''",
"''''''''''''''''''''''''''''''''''''''''''''''''''''''''''''''''",
"''''''''''''''''''''''''''''''''''''''''''''''''''''''''''''''''",
};
